<svg width="18" height="18" viewBox="0 0 18 18" fill="none" xmlns="http://www.w3.org/2000/svg">
<g id="Icon/attachment-2">
<path id="Vector" d="M11.1215 5.81939L6.87885 10.0621C6.58595 10.3549 6.58595 10.8298 6.87885 11.1227C7.17174 11.4156 7.64662 11.4156 7.9395 11.1227L12.1822 6.88005C13.0608 6.00137 13.0608 4.57675 12.1822 3.69807C11.3035 2.81939 9.87885 2.81939 9.00015 3.69807L4.75753 7.94069C3.29306 9.40514 3.29306 11.7796 4.75753 13.244C6.22199 14.7085 8.59635 14.7085 10.0608 13.244L14.3035 9.00134L15.3641 10.0621L11.1215 14.3047C9.07125 16.3549 5.74712 16.3549 3.69687 14.3047C1.64662 12.2544 1.64662 8.93032 3.69687 6.88005L7.9395 2.63741C9.40395 1.17295 11.7784 1.17295 13.2428 2.63741C14.7073 4.10188 14.7073 6.47625 13.2428 7.94069L9.00015 12.1834C8.12152 13.0621 6.69687 13.0621 5.81819 12.1834C4.93951 11.3047 4.93951 9.88004 5.81819 9.00134L10.0608 4.75873L11.1215 5.81939Z" fill="#4B5563"/>
</g>
</svg>
