<svg width="22" height="22" viewBox="0 0 22 22" fill="none" xmlns="http://www.w3.org/2000/svg">
<g id="hand svg">
<g id="Group">
<path id="Vector" d="M17.3509 3.14936C17.0134 3.14936 16.6932 3.22402 16.405 3.35679C16.2096 2.3036 15.2846 1.50339 14.1757 1.50339C13.8273 1.50339 13.4971 1.5825 13.2019 1.72348C12.9573 0.735072 12.0633 0 11.0004 0C9.9375 0 9.04348 0.735117 8.7989 1.72348C8.50369 1.58255 8.17351 1.50339 7.82514 1.50339C6.57454 1.50339 5.55709 2.52084 5.55709 3.77144V9.31553C5.27908 9.19369 4.97235 9.1256 4.64988 9.1256C3.39928 9.1256 2.38184 10.143 2.38184 11.3936V16.0577C2.38184 19.3343 5.04751 22 8.3241 22H13.6767C16.9532 22 19.6189 19.3343 19.6189 16.0577V5.4174C19.6189 4.16675 18.6015 3.14936 17.3509 3.14936ZM18.2581 16.0577C18.2581 18.5839 16.2029 20.6392 13.6767 20.6392H8.3241C5.79791 20.6392 3.74266 18.5839 3.74266 16.0577V11.3936C3.74266 10.8934 4.14964 10.4864 4.64988 10.4864C5.15012 10.4864 5.55709 10.8934 5.55709 11.3936V15.0225H6.91792V3.77144C6.91792 3.2712 7.3249 2.86422 7.82514 2.86422C8.32537 2.86422 8.73235 3.2712 8.73235 3.77144V10.94H10.0932V2.26804C10.0932 1.7678 10.5002 1.36082 11.0004 1.36082C11.5006 1.36082 11.9076 1.7678 11.9076 2.26804V10.94H13.2684V3.77144C13.2684 3.2712 13.6754 2.86422 14.1757 2.86422C14.6759 2.86422 15.0829 3.2712 15.0829 3.77144V10.94H16.4437V5.41735C16.4437 4.91711 16.8507 4.51014 17.3509 4.51014C17.8511 4.51014 18.2581 4.91711 18.2581 5.41735V16.0577Z" fill="white"/>
</g>
</g>
</svg>
