<svg width="20" height="20" viewBox="0 0 20 20" fill="none" xmlns="http://www.w3.org/2000/svg">
<g id="Icon/hand-line">
<path id="Vector" d="M15.7732 2.86305C15.4663 2.86305 15.1752 2.93093 14.9133 3.05163C14.7356 2.09419 13.8947 1.36672 12.8866 1.36672C12.5699 1.36672 12.2697 1.43864 12.0013 1.5668C11.779 0.668247 10.9662 0 9.99997 0C9.0337 0 8.22096 0.668289 7.99861 1.5668C7.73024 1.43868 7.43007 1.36672 7.11337 1.36672C5.97646 1.36672 5.05151 2.29167 5.05151 3.42858V8.46866C4.79877 8.3579 4.51993 8.296 4.22677 8.296C3.08987 8.296 2.16492 9.22095 2.16492 10.3579V14.5979C2.16492 17.5766 4.58826 20 7.56698 20H12.433C15.4116 20 17.835 17.5766 17.835 14.5979V4.92491C17.835 3.78796 16.9101 2.86305 15.7732 2.86305ZM16.5979 14.5979C16.5979 16.8945 14.7295 18.7629 12.433 18.7629H7.56698C5.27044 18.7629 3.40203 16.8945 3.40203 14.5979V10.3579C3.40203 9.90309 3.77201 9.53311 4.22677 9.53311C4.68154 9.53311 5.05151 9.90309 5.05151 10.3579V13.6568H6.28863V3.42858C6.28863 2.97381 6.65861 2.60384 7.11337 2.60384C7.56813 2.60384 7.93811 2.97381 7.93811 3.42858V9.94548H9.17523V2.06186C9.17523 1.60709 9.54521 1.23711 9.99997 1.23711C10.4547 1.23711 10.8247 1.60709 10.8247 2.06186V9.94548H12.0618V3.42858C12.0618 2.97381 12.4318 2.60384 12.8866 2.60384C13.3413 2.60384 13.7113 2.97381 13.7113 3.42858V9.94548H14.9484V4.92487C14.9484 4.4701 15.3184 4.10012 15.7732 4.10012C16.2279 4.10012 16.5979 4.4701 16.5979 4.92487V14.5979Z" fill="#3B82F6"/>
</g>
</svg>
