<svg width="22" height="22" viewBox="0 0 22 22" fill="none" xmlns="http://www.w3.org/2000/svg">
<g id="Icon/information-line">
<path id="Vector" d="M11.0002 20.1693C5.93755 20.1693 1.8335 16.0652 1.8335 11.0026C1.8335 5.93999 5.93755 1.83594 11.0002 1.83594C16.0627 1.83594 20.1668 5.93999 20.1668 11.0026C20.1668 16.0652 16.0627 20.1693 11.0002 20.1693ZM11.0002 18.3359C15.0503 18.3359 18.3335 15.0527 18.3335 11.0026C18.3335 6.95251 15.0503 3.66927 11.0002 3.66927C6.95007 3.66927 3.66683 6.95251 3.66683 11.0026C3.66683 15.0527 6.95007 18.3359 11.0002 18.3359ZM10.0835 6.41927H11.9168V8.2526H10.0835V6.41927ZM10.0835 10.0859H11.9168V15.5859H10.0835V10.0859Z" fill="white"/>
</g>
</svg>
