<svg width="16" height="16" viewBox="0 0 16 16" fill="none" xmlns="http://www.w3.org/2000/svg">
<g id="Icon/mic-line">
<path id="Vector" d="M7.99984 1.9974C6.89524 1.9974 5.99982 2.89283 5.99982 3.9974V6.66406C5.99982 7.76866 6.89524 8.66406 7.99984 8.66406C9.10438 8.66406 9.99984 7.76866 9.99984 6.66406V3.9974C9.99984 2.89283 9.10438 1.9974 7.99984 1.9974ZM7.99984 0.664062C9.84078 0.664062 11.3332 2.15645 11.3332 3.9974V6.66406C11.3332 8.505 9.84078 9.9974 7.99984 9.9974C6.15886 9.9974 4.66648 8.505 4.66648 6.66406V3.9974C4.66648 2.15645 6.15886 0.664062 7.99984 0.664062ZM2.03644 7.33073H3.38041C3.7039 9.59226 5.64884 11.3307 7.99984 11.3307C10.3508 11.3307 12.2957 9.59226 12.6192 7.33073H13.9632C13.6558 10.1118 11.4476 12.32 8.66651 12.6275V15.3307H7.33318V12.6275C4.55207 12.32 2.34387 10.1118 2.03644 7.33073Z" fill="#111827"/>
</g>
</svg>
