<svg width="16" height="16" viewBox="0 0 16 16" fill="none" xmlns="http://www.w3.org/2000/svg">
<g id="Icon/mic-off-line" clip-path="url(#clip0_132_29871)">
<path id="Vector" d="M10.9506 11.8901L14.129 15.0685L15.0718 14.1257L1.87249 0.926329L0.929688 1.86914L4.66742 5.60687V6.66406C4.66742 8.505 6.15981 9.9974 8.00073 9.9974C8.32233 9.9974 8.63327 9.95186 8.92747 9.86686L9.96087 10.9003C9.36493 11.1766 8.70087 11.3307 8.00073 11.3307C5.64977 11.3307 3.70483 9.59226 3.38135 7.33073H2.03737C2.34481 10.1118 4.55301 12.32 7.33407 12.6275V15.3307H8.6674V12.6275C9.49007 12.5365 10.2626 12.2793 10.9506 11.8901ZM7.70253 8.642C6.83673 8.51253 6.15229 7.82813 6.02284 6.96226L7.70253 8.642ZM12.9171 10.1043L11.9555 9.14266C12.2945 8.603 12.526 7.989 12.6201 7.33073H13.9641C13.8509 8.35513 13.4798 9.30173 12.9171 10.1043ZM10.9779 8.165L9.94553 7.13273C9.98167 6.9824 10.0007 6.82546 10.0007 6.66406V3.9974C10.0007 2.89283 9.10533 1.9974 8.00073 1.9974C7.13793 1.9974 6.40272 2.54377 6.12223 3.30941L5.12448 2.31166C5.70349 1.32585 6.77487 0.664062 8.00073 0.664062C9.84173 0.664062 11.3341 2.15645 11.3341 3.9974V6.66406C11.3341 7.204 11.2057 7.71393 10.9779 8.165Z" fill="#111827"/>
</g>
<defs>
<clipPath id="clip0_132_29871">
<rect width="16" height="16" fill="white"/>
</clipPath>
</defs>
</svg>
