<svg width="22" height="22" viewBox="0 0 22 22" fill="none" xmlns="http://www.w3.org/2000/svg">
<g id="Icon/mic-line">
<path id="Vector" d="M10.9995 2.7474C9.48066 2.7474 8.24945 3.97862 8.24945 5.4974V9.16406C8.24945 10.6829 9.48066 11.9141 10.9995 11.9141C12.5182 11.9141 13.7495 10.6829 13.7495 9.16406V5.4974C13.7495 3.97862 12.5182 2.7474 10.9995 2.7474ZM10.9995 0.914062C13.5308 0.914062 15.5828 2.96609 15.5828 5.4974V9.16406C15.5828 11.6953 13.5308 13.7474 10.9995 13.7474C8.46814 13.7474 6.41612 11.6953 6.41612 9.16406V5.4974C6.41612 2.96609 8.46814 0.914062 10.9995 0.914062ZM2.7998 10.0807H4.64777C5.09256 13.1903 7.76685 15.5807 10.9995 15.5807C14.232 15.5807 16.9063 13.1903 17.3512 10.0807H19.1991C18.7764 13.9047 15.7401 16.941 11.9162 17.3637V21.0807H10.0828V17.3637C6.2588 16.941 3.22253 13.9047 2.7998 10.0807Z" fill="white"/>
</g>
</svg>
