<svg width="16" height="17" viewBox="0 0 16 17" fill="none" xmlns="http://www.w3.org/2000/svg">
<g id="Icon/more-2-fill">
<path id="Vector" d="M7.99996 2.5C7.26663 2.5 6.66663 3.1 6.66663 3.83333C6.66663 4.56667 7.26663 5.16667 7.99996 5.16667C8.73329 5.16667 9.33329 4.56667 9.33329 3.83333C9.33329 3.1 8.73329 2.5 7.99996 2.5ZM7.99996 11.8333C7.26663 11.8333 6.66663 12.4333 6.66663 13.1667C6.66663 13.9 7.26663 14.5 7.99996 14.5C8.73329 14.5 9.33329 13.9 9.33329 13.1667C9.33329 12.4333 8.73329 11.8333 7.99996 11.8333ZM7.99996 7.16667C7.26663 7.16667 6.66663 7.76667 6.66663 8.5C6.66663 9.23333 7.26663 9.83333 7.99996 9.83333C8.73329 9.83333 9.33329 9.23333 9.33329 8.5C9.33329 7.76667 8.73329 7.16667 7.99996 7.16667Z" fill="#3B82F6"/>
</g>
</svg>
