<svg width="22" height="22" viewBox="0 0 22 22" fill="none" xmlns="http://www.w3.org/2000/svg">
<g id="Icon/airplay-line">
<path id="Vector" d="M11.3663 12.4055L15.9497 18.5167C16.1016 18.7192 16.0605 19.0064 15.858 19.1583C15.7787 19.2178 15.6822 19.25 15.583 19.25H6.41634C6.16321 19.25 5.95801 19.0448 5.95801 18.7917C5.95801 18.6925 5.99017 18.596 6.04967 18.5167L10.633 12.4055C10.7849 12.203 11.0722 12.162 11.2747 12.3139C11.3094 12.34 11.3403 12.3708 11.3663 12.4055ZM10.9997 14.9692L9.16634 17.4167H12.833L10.9997 14.9692ZM16.4997 17.4167V15.5833H18.333V4.58333H3.66634V15.5833H5.49967V17.4167H2.74216C2.24005 17.4167 1.83301 17.0091 1.83301 16.4992V3.66746C1.83301 3.16077 2.25038 2.75 2.74216 2.75H19.2572C19.7593 2.75 20.1663 3.15758 20.1663 3.66746V16.4992C20.1663 17.0059 19.749 17.4167 19.2572 17.4167H16.4997Z" fill="white"/>
</g>
</svg>
