<svg width="22" height="22" viewBox="0 0 22 22" fill="none" xmlns="http://www.w3.org/2000/svg">
<g id="Icon/settings-5-line">
<path id="Vector" d="M2.02934 12.8855C1.76073 11.6162 1.77161 10.3318 2.03011 9.10904C3.04753 9.22887 3.93559 8.8919 4.22598 8.19085C4.51636 7.48979 4.12667 6.62358 3.32253 5.98887C4.00438 4.94144 4.90492 4.02551 5.99229 3.31801C6.62705 4.12257 7.49352 4.51254 8.19476 4.22207C8.89599 3.93161 9.23288 3.04319 9.11286 2.02544C10.382 1.75682 11.6664 1.7677 12.8893 2.0262C12.7695 3.04363 13.1063 3.93168 13.8074 4.22207C14.5085 4.51247 15.3747 4.12276 16.0094 3.31863C17.0568 4.00047 17.9727 4.90101 18.6802 5.98838C17.8757 6.62315 17.4857 7.48962 17.7762 8.19085C18.0667 8.89208 18.9551 9.22905 19.9728 9.10895C20.2415 10.3781 20.2306 11.6625 19.9721 12.8854C18.9547 12.7656 18.0666 13.1025 17.7762 13.8035C17.4858 14.5046 17.8755 15.3708 18.6797 16.0055C17.9979 17.0529 17.0972 17.9688 16.0099 18.6764C15.3752 17.8718 14.5087 17.4818 13.8074 17.7723C13.1062 18.0628 12.7693 18.9512 12.8894 19.9689C11.6202 20.2376 10.3357 20.2267 9.11295 19.9682C9.23279 18.9508 8.89581 18.0627 8.19476 17.7723C7.4937 17.4819 6.62748 17.8716 5.99277 18.6758C4.94535 17.9939 4.02942 17.0934 3.32192 16.006C4.12648 15.3713 4.51644 14.5047 4.22598 13.8035C3.93552 13.1023 3.04708 12.7654 2.02934 12.8855ZM3.66782 11.1899C4.67598 11.4689 5.50796 12.1078 5.91976 13.102C6.33156 14.0961 6.19499 15.1361 5.67941 16.0463C5.76793 16.1395 5.85887 16.2305 5.95213 16.3188C6.86227 15.8033 7.90225 15.6668 8.89634 16.0786C9.8904 16.4903 10.5292 17.3222 10.8084 18.3303C10.9368 18.3338 11.0653 18.3338 11.1938 18.3305C11.4728 17.3223 12.1117 16.4903 13.1059 16.0786C14.1 15.6667 15.1401 15.8033 16.0502 16.3189C16.1434 16.2304 16.2343 16.1394 16.3227 16.0461C15.8072 15.1361 15.6706 14.096 16.0824 13.102C16.4942 12.1078 17.3261 11.469 18.3342 11.19C18.3377 11.0616 18.3378 10.933 18.3344 10.8044C17.3262 10.5255 16.4943 9.88658 16.0824 8.89243C15.6706 7.89827 15.8072 6.85822 16.3227 5.94807C16.2343 5.85481 16.1434 5.76396 16.05 5.67559C15.14 6.1911 14.0999 6.32762 13.1059 5.91585C12.1118 5.50409 11.4729 4.67218 11.1939 3.6641C11.0655 3.66063 10.9369 3.66057 10.8084 3.66392C10.5293 4.67208 9.8905 5.50406 8.89634 5.91585C7.90217 6.32765 6.86213 6.19108 5.95196 5.6755C5.85871 5.76402 5.76787 5.85496 5.67949 5.94823C6.19501 6.85836 6.33153 7.89834 5.91976 8.89243C5.508 9.88649 4.67608 10.5254 3.668 10.8044C3.66454 10.9329 3.66448 11.0614 3.66782 11.1899ZM11.0011 13.7472C9.4823 13.7472 8.25109 12.5159 8.25109 10.9972C8.25109 9.47839 9.4823 8.24719 11.0011 8.24719C12.5199 8.24719 13.7511 9.47839 13.7511 10.9972C13.7511 12.5159 12.5199 13.7472 11.0011 13.7472ZM11.0011 11.9139C11.5073 11.9139 11.9178 11.5035 11.9178 10.9972C11.9178 10.4909 11.5073 10.0805 11.0011 10.0805C10.4949 10.0805 10.0845 10.4909 10.0845 10.9972C10.0845 11.5035 10.4949 11.9139 11.0011 11.9139Z" fill="white"/>
</g>
</svg>
