<svg width="22" height="22" viewBox="0 0 22 22" fill="none" xmlns="http://www.w3.org/2000/svg">
<path d="M15.5834 8.43073L20.3623 5.08555C20.5696 4.94038 20.8554 4.99082 21.0005 5.1982C21.0544 5.27523 21.0834 5.36699 21.0834 5.46103V16.5338C21.0834 16.7869 20.8782 16.9921 20.6251 16.9921C20.531 16.9921 20.4393 16.9632 20.3623 16.9093L15.5834 13.5641V17.4141C15.5834 17.9203 15.173 18.3307 14.6667 18.3307H1.83341C1.32716 18.3307 0.916748 17.9203 0.916748 17.4141V4.58073C0.916748 4.07447 1.32716 3.66406 1.83341 3.66406H14.6667C15.173 3.66406 15.5834 4.07447 15.5834 4.58073V8.43073ZM15.5834 11.3262L19.2501 13.8929V8.10193L15.5834 10.6686V11.3262ZM2.75008 5.4974V16.4974H13.7501V5.4974H2.75008ZM4.58342 7.33073H6.41675V9.16406H4.58342V7.33073Z" fill="white"/>
<rect width="26.5474" height="1.80663" transform="translate(1.14722 1.36719) rotate(44.4639)" fill="white"/>
<rect width="26.5264" height="1.53614" transform="translate(2.24219 0.3125) rotate(44.4639)" fill="#6B7280"/>
</svg>
