<svg width="16" height="16" viewBox="0 0 16 16" fill="none" xmlns="http://www.w3.org/2000/svg">
<path d="M11.3334 6.13073L14.8089 3.69787C14.9597 3.5923 15.1676 3.62898 15.2731 3.7798C15.3123 3.83582 15.3334 3.90256 15.3334 3.97095V12.0239C15.3334 12.2079 15.1841 12.3572 15.0001 12.3572C14.9317 12.3572 14.8649 12.3361 14.8089 12.2969L11.3334 9.86406V12.6641C11.3334 13.0323 11.0349 13.3307 10.6667 13.3307H1.33341C0.965228 13.3307 0.666748 13.0323 0.666748 12.6641V3.33073C0.666748 2.96254 0.965228 2.66406 1.33341 2.66406H10.6667C11.0349 2.66406 11.3334 2.96254 11.3334 3.33073V6.13073ZM11.3334 8.23653L14.0001 10.1032V5.8916L11.3334 7.75826V8.23653ZM2.00008 3.9974V11.9974H10.0001V3.9974H2.00008ZM3.33341 5.33073H4.66675V6.66406H3.33341V5.33073Z" fill="#111827"/>
<rect width="19.3072" height="1.31391" transform="translate(0.834229 0.992188) rotate(44.4639)" fill="#111827"/>
<rect width="19.2919" height="1.11719" transform="translate(1.63062 0.226562) rotate(44.4639)" fill="#F3F4F6"/>
</svg>
