<svg width="16" height="16" viewBox="0 0 16 16" fill="none" xmlns="http://www.w3.org/2000/svg">
<g id="Icon/vidicon-line">
<path id="Vector" d="M11.3334 6.13073L14.8089 3.69787C14.9597 3.5923 15.1676 3.62898 15.2731 3.7798C15.3123 3.83582 15.3334 3.90256 15.3334 3.97095V12.0239C15.3334 12.2079 15.1841 12.3572 15 12.3572C14.9316 12.3572 14.8649 12.3361 14.8089 12.2969L11.3334 9.86406V12.6641C11.3334 13.0323 11.0349 13.3307 10.6667 13.3307H1.33335C0.965167 13.3307 0.666687 13.0323 0.666687 12.6641V3.33073C0.666687 2.96254 0.965167 2.66406 1.33335 2.66406H10.6667C11.0349 2.66406 11.3334 2.96254 11.3334 3.33073V6.13073ZM11.3334 8.23653L14 10.1032V5.8916L11.3334 7.75826V8.23653ZM2.00002 3.9974V11.9974H10V3.9974H2.00002ZM3.33335 5.33073H4.66669V6.66406H3.33335V5.33073Z" fill="#111827"/>
</g>
</svg>
