<svg width="22" height="22" viewBox="0 0 22 22" fill="none" xmlns="http://www.w3.org/2000/svg">
<g id="Icon/vidicon-line">
<path id="Vector" d="M15.5837 8.43073L20.3625 5.08555C20.5699 4.94038 20.8557 4.99082 21.0008 5.1982C21.0547 5.27523 21.0837 5.36699 21.0837 5.46103V16.5338C21.0837 16.7869 20.8784 16.9921 20.6253 16.9921C20.5313 16.9921 20.4395 16.9632 20.3625 16.9093L15.5837 13.5641V17.4141C15.5837 17.9203 15.1733 18.3307 14.667 18.3307H1.83366C1.3274 18.3307 0.916992 17.9203 0.916992 17.4141V4.58073C0.916992 4.07447 1.3274 3.66406 1.83366 3.66406H14.667C15.1733 3.66406 15.5837 4.07447 15.5837 4.58073V8.43073ZM15.5837 11.3262L19.2503 13.8929V8.10193L15.5837 10.6686V11.3262ZM2.75033 5.4974V16.4974H13.7503V5.4974H2.75033ZM4.58366 7.33073H6.41699V9.16406H4.58366V7.33073Z" fill="#F9FAFB"/>
</g>
</svg>
