<svg width="20" height="21" viewBox="0 0 20 21" fill="none" xmlns="http://www.w3.org/2000/svg">
<path d="M5.83317 5.4974V2.9974C5.83317 2.53716 6.20627 2.16406 6.6665 2.16406H16.6665C17.1267 2.16406 17.4998 2.53716 17.4998 2.9974V14.6641C17.4998 15.1243 17.1267 15.4974 16.6665 15.4974H14.1665V17.9966C14.1665 18.4573 13.7916 18.8307 13.3275 18.8307H3.33888C2.87549 18.8307 2.5 18.4602 2.5 17.9966L2.50217 6.33145C2.50225 5.87082 2.8772 5.4974 3.34118 5.4974H5.83317ZM4.16868 7.16406L4.16682 17.1641H12.4998V7.16406H4.16868ZM7.49983 5.4974H14.1665V13.8307H15.8332V3.83073H7.49983V5.4974Z" fill="#9CA3AF"/>
</svg>
