<svg width="50" height="50" viewBox="0 0 50 50" fill="none" xmlns="http://www.w3.org/2000/svg">
<path d="M35.4163 19.1693L46.2774 11.5666C46.7486 11.2367 47.3982 11.3513 47.728 11.8226C47.8505 11.9977 47.9163 12.2062 47.9163 12.42V37.5853C47.9163 38.1605 47.4499 38.627 46.8747 38.627C46.6609 38.627 46.4524 38.5611 46.2774 38.4386L35.4163 30.8359V39.5859C35.4163 40.7366 34.4836 41.6693 33.333 41.6693H4.16634C3.01576 41.6693 2.08301 40.7366 2.08301 39.5859V10.4193C2.08301 9.26869 3.01576 8.33594 4.16634 8.33594H33.333C34.4836 8.33594 35.4163 9.26869 35.4163 10.4193V19.1693ZM10.4163 16.6693V20.8359H14.583V16.6693H10.4163Z" fill="#3B82F6"/>
</svg>
