<svg width="18" height="18" viewBox="0 0 18 18" fill="none" xmlns="http://www.w3.org/2000/svg">
<mask id="path-1-inside-1_132_32580" fill="white">
<path d="M7.0877 13.3906L2.8877 9.19063L3.69395 8.38438L7.0877 11.7781L14.2877 4.57812L15.0939 5.38438L7.0877 13.3906Z"/>
</mask>
<path d="M7.0877 13.3906L2.8877 9.19063L3.69395 8.38438L7.0877 11.7781L14.2877 4.57812L15.0939 5.38438L7.0877 13.3906Z" fill="#3E88FF"/>
<path d="M7.0877 13.3906L7.07444 13.4039L7.0877 13.4171L7.10095 13.4039L7.0877 13.3906ZM2.8877 9.19063L2.87444 9.17737L2.86118 9.19063L2.87444 9.20388L2.8877 9.19063ZM3.69395 8.38438L3.7072 8.37112L3.69395 8.35786L3.68069 8.37112L3.69395 8.38438ZM7.0877 11.7781L7.07444 11.7914L7.0877 11.8046L7.10095 11.7914L7.0877 11.7781ZM14.2877 4.57812L14.301 4.56487L14.2877 4.55161L14.2744 4.56487L14.2877 4.57812ZM15.0939 5.38438L15.1072 5.39763L15.1205 5.38438L15.1072 5.37112L15.0939 5.38438ZM7.10095 13.3774L2.90095 9.17737L2.87444 9.20388L7.07444 13.4039L7.10095 13.3774ZM2.90095 9.20388L3.7072 8.39763L3.68069 8.37112L2.87444 9.17737L2.90095 9.20388ZM3.68069 8.39763L7.07444 11.7914L7.10095 11.7649L3.7072 8.37112L3.68069 8.39763ZM7.10095 11.7914L14.301 4.59138L14.2744 4.56487L7.07444 11.7649L7.10095 11.7914ZM14.2744 4.59138L15.0807 5.39763L15.1072 5.37112L14.301 4.56487L14.2744 4.59138ZM15.0807 5.37112L7.07444 13.3774L7.10095 13.4039L15.1072 5.39763L15.0807 5.37112Z" fill="#3E88FF" mask="url(#path-1-inside-1_132_32580)"/>
</svg>
