<svg width="16" height="16" viewBox="0 0 16 16" fill="none" xmlns="http://www.w3.org/2000/svg">
<path d="M12.0203 11.0805L14.8755 13.9356L13.9327 14.8784L11.0775 12.0233C10.0509 12.8446 8.74901 13.3359 7.33301 13.3359C4.02101 13.3359 1.33301 10.6479 1.33301 7.33594C1.33301 4.02394 4.02101 1.33594 7.33301 1.33594C10.645 1.33594 13.333 4.02394 13.333 7.33594C13.333 8.75194 12.8417 10.0539 12.0203 11.0805ZM10.6828 10.5858C11.498 9.74567 11.9997 8.59967 11.9997 7.33594C11.9997 4.7576 9.91134 2.66927 7.33301 2.66927C4.75467 2.66927 2.66634 4.7576 2.66634 7.33594C2.66634 9.91427 4.75467 12.0026 7.33301 12.0026C8.59674 12.0026 9.74274 11.5009 10.5829 10.6857L10.6828 10.5858Z" fill="#9CA3AF"/>
</svg>
